/vscmnt/brussel_pixiu_data/_data_brussel/112/vsc11236/PredSimResults/SUBJ10mtu3D/weighted-LRposFixed/trackIG/worker_03.mot
version=1
nRows=11
nColumns=50
inDegrees=yes
endheader
                time	         pelvis_tilt	         pelvis_list	     pelvis_rotation	           pelvis_tx	           pelvis_ty	           pelvis_tz	       hip_flexion_r	     hip_adduction_r	      hip_rotation_r	        knee_angle_r	       ankle_angle_r	         mtp_angle_r	       hip_flexion_l	     hip_adduction_l	      hip_rotation_l	        knee_angle_l	       ankle_angle_l	         mtp_angle_l	    lumbar_extension	      lumbar_bending	     lumbar_rotation	 ercspn_r/activation	 intobl_r/activation	 extobl_r/activation	    abd_r/activation	    add_r/activation	hamstrings_r/activation	bifemsh_r/activation	glut_max_r/activation	iliopsoas_r/activation	rect_fem_r/activation	  vasti_r/activation	gastroc_r/activation	 soleus_r/activation	tib_ant_r/activation	 ercspn_l/activation	 intobl_l/activation	 extobl_l/activation	    abd_l/activation	    add_l/activation	hamstrings_l/activation	bifemsh_l/activation	glut_max_l/activation	iliopsoas_l/activation	rect_fem_l/activation	  vasti_l/activation	gastroc_l/activation	 soleus_l/activation	tib_ant_l/activation	
          0.00000000	         -4.63106952	         -3.00822488	         10.82875147	          0.00000000	          0.82697824	         -0.01590143	         28.73535405	         -1.20746035	         -9.06395240	         -3.49025084	          6.97900971	          0.25198138	        -13.30802942	         -3.37524642	          6.15108704	         -6.88917251	         10.07145663	         24.37329677	         -7.16183919	          1.02274238	         -3.90930644	          0.09017801	          0.17023683	          0.02290996	          0.01193111	          0.11398425	          0.03692994	          0.14765100	          0.00999999	          0.08075167	          0.01193111	          0.00999999	          0.01468481	          0.00999999	          0.26280672	          0.02663397	          0.00999999	          0.00999999	          0.04147891	          0.02984159	          0.02651474	          0.13701124	          0.03441657	          0.33176098	          0.00999999	          0.00999999	          0.27055120	          0.24537600	          0.01816075	
          0.01158671	         -4.70117845	         -2.82253554	         10.67464488	          0.01534253	          0.82526060	         -0.01553866	         28.91309831	         -1.01595181	         -8.06013229	         -5.26598609	          6.69115793	          0.25269452	        -13.43480495	         -3.18630916	          5.50707241	         -8.59749715	          9.57006296	         26.04870648	         -6.95172106	          1.39872322	         -4.07860087	          0.07558220	          0.14268305	          0.01920186	          0.00999999	          0.19096060	          0.03211031	          0.12375286	          0.05840949	          0.06768156	          0.00999999	          0.00999999	          0.01947689	          0.01423514	          0.26502660	          0.07521972	          0.00999999	          0.00999999	          0.03476532	          0.07828319	          0.02222318	          0.11483521	          0.02884606	          0.35147139	          0.00999999	          0.00999999	          0.22676098	          0.23263977	          0.01522133	
          0.02317342	         -4.75498271	         -2.64643448	         10.45982196	          0.03103759	          0.82367780	         -0.01514453	         28.89474117	         -0.84612843	         -7.01980793	         -7.00373523	          6.40700746	          0.23963139	        -13.41964583	         -2.99126781	          4.80643150	        -10.63542064	          8.97071367	         27.69069660	         -6.71825610	          1.80499177	         -4.22386036	          0.06334880	          0.12769005	          0.01609393	          0.04228328	          0.16511110	          0.04395353	          0.10372277	          0.07046736	          0.05672692	          0.00999999	          0.00999999	          0.01632445	          0.01193111	          0.29768822	          0.09208975	          0.00999999	          0.00999999	          0.02913836	          0.07754574	          0.01971677	          0.09624849	          0.02417716	          0.33913225	          0.00999999	          0.00999999	          0.19005845	          0.21701776	          0.01275767	
          0.03476013	         -4.79492688	         -2.47645178	         10.18245916	          0.04687428	          0.82238671	         -0.01464676	         28.70204286	         -0.65770292	         -6.05128418	         -8.45491335	          6.03961150	          0.23025657	        -13.18989527	         -2.79189997	          4.05258493	        -13.08521378	          8.22437238	         29.24518109	         -6.48476895	          2.22478381	         -4.34487344	          0.07974481	          0.10702271	          0.01348904	          0.09539949	          0.17169140	          0.04521880	          0.08693466	          0.08424304	          0.04754535	          0.00999999	          0.00999999	          0.01368224	          0.00999999	          0.31785107	          0.11463015	          0.00999999	          0.00999999	          0.02442215	          0.08178773	          0.01789955	          0.08067013	          0.02026395	          0.32863243	          0.00999999	          0.00999999	          0.15929643	          0.18701052	          0.01069277	
          0.04634683	         -4.82147304	         -2.31232933	          9.84806239	          0.06265038	          0.82152134	         -0.01404746	         28.42539444	         -0.44162897	         -5.18152694	         -9.76883067	          5.68132695	          0.21882294	        -12.69837919	         -2.59303133	          3.24013462	        -15.98649858	          7.31235737	         30.56467930	         -6.26933121	          2.65715800	         -4.44021006	          0.07733278	          0.08970048	          0.01130576	          0.12025728	          0.17958997	          0.04104980	          0.07286380	          0.09820648	          0.03984987	          0.00999999	          0.02214451	          0.01146770	          0.00999999	          0.33691652	          0.13905720	          0.00999999	          0.00999999	          0.02046929	          0.09494910	          0.02005961	          0.06761322	          0.01698412	          0.30504715	          0.00999999	          0.00999999	          0.13351341	          0.15674182	          0.00999999	
          0.05793354	         -4.83485424	         -2.15553144	          9.45998997	          0.07823621	          0.82115914	         -0.01335923	         28.10590120	         -0.20601971	         -4.41123281	        -11.01342100	          5.39951617	          0.20886975	        -11.92546303	         -2.40638317	          2.35160178	        -19.33878379	          6.25202543	         31.41286469	         -6.08140815	          3.10131413	         -4.50915293	          0.06638608	          0.07518196	          0.00999999	          0.13299002	          0.16243835	          0.04437503	          0.06107039	          0.08554490	          0.03339995	          0.00999999	          0.07292384	          0.00999999	          0.00999999	          0.34669096	          0.15267869	          0.00999999	          0.00999999	          0.01715622	          0.10653284	          0.02222045	          0.05666964	          0.01423514	          0.26897887	          0.00999999	          0.00999999	          0.11190352	          0.13137228	          0.00999999	
          0.06952025	         -4.83705816	         -1.99996024	          9.01949447	          0.09355235	          0.82137384	         -0.01260069	         27.71731937	          0.03689786	         -3.72539063	        -12.13046117	          5.21710810	          0.19714241	        -10.87586195	         -2.24137802	          1.37649535	        -23.09279619	          5.01403789	         31.60750548	         -5.92747317	          3.54792939	         -4.55212993	          0.05564112	          0.06301334	          0.00999999	          0.13528766	          0.13614680	          0.04427573	          0.05118581	          0.07344462	          0.02799398	          0.00999999	          0.13381907	          0.00999999	          0.00999999	          0.35090805	          0.16011553	          0.00999999	          0.00999999	          0.01437939	          0.12173837	          0.01924785	          0.04749735	          0.01193111	          0.22544314	          0.00999999	          0.00999999	          0.09379131	          0.11010895	          0.00999999	
          0.08110696	         -4.83064655	         -1.83538457	          8.52415529	          0.10856553	          0.82222854	         -0.01179886	         27.20372704	          0.27475945	         -3.10872845	        -13.01993665	          5.16509848	          0.18733449	         -9.58201248	         -2.10288815	          0.32649734	        -27.12426535	          3.44285746	         31.18287920	         -5.81024547	          3.98516519	         -4.56594598	          0.04663530	          0.05281428	          0.00999999	          0.13417467	          0.11411068	          0.04602143	          0.04290110	          0.06183907	          0.02346300	          0.00999999	          0.16898655	          0.00999999	          0.00999999	          0.34371182	          0.16190192	          0.00999999	          0.00999999	          0.01205201	          0.13451123	          0.01613252	          0.05103414	          0.00999999	          0.18895391	          0.00999999	          0.00999999	          0.07861066	          0.09228720	          0.00999999	
          0.09269367	         -4.81739507	         -1.64784312	          7.97230924	          0.12326821	          0.82370193	         -0.01097789	         26.53909222	          0.49077363	         -2.52992440	        -13.63762208	          5.24459042	          0.18067242	         -8.09193035	         -1.98823623	         -0.77519113	        -31.29826141	          1.52883543	         30.03553167	         -5.73072065	          4.39751611	         -4.54825391	          0.03908711	          0.04426599	          0.00999999	          0.13773011	          0.09564123	          0.04604884	          0.03595732	          0.05183007	          0.01966538	          0.00999999	          0.17070208	          0.01002710	          0.01043153	          0.32786168	          0.16252357	          0.00999999	          0.00999999	          0.01010132	          0.13512780	          0.01698411	          0.04277398	          0.00999999	          0.15837066	          0.00999999	          0.00999999	          0.06588709	          0.07735000	          0.03893604	
          0.10428038	         -4.79754834	         -1.43219435	          7.37064728	          0.13764197	          0.82565928	         -0.01015878	         25.74979099	          0.67279963	         -1.95868827	        -14.02467963	          5.42105307	          0.18016402	         -6.45934335	         -1.89607289	         -1.90021887	        -35.53684009	         -0.37032126	         27.74989566	         -5.68979517	          4.77657845	         -4.50179822	          0.03276064	          0.03710129	          0.00999999	          0.14621443	          0.08016116	          0.04470611	          0.03013742	          0.04863877	          0.01648243	          0.00999999	          0.16919636	          0.00999999	          0.00999999	          0.31153887	          0.18341274	          0.04586901	          0.00999999	          0.00999999	          0.11325661	          0.01423514	          0.03585078	          0.00999999	          0.13273749	          0.00999999	          0.00999999	          0.05522290	          0.06483047	          0.14152656	
          0.11586708	         -4.77022354	         -1.18810666	          6.72961939	          0.15167971	          0.82790298	         -0.00933693	         24.86777633	          0.81436472	         -1.38211743	        -14.22882466	          5.64772177	          0.18491405	         -4.76435946	         -1.80987208	         -3.01559695	        -39.73870878	         -1.67057929	         24.30849126	         -5.68609768	          5.10762949	         -4.42534201	          0.02745815	          0.03109624	          0.00999999	          0.14111770	          0.06718663	          0.04204089	          0.02525951	          0.04815709	          0.01381466	          0.00999999	          0.16169258	          0.00999999	          0.00999999	          0.29124023	          0.19815465	          0.05960912	          0.02202495	          0.00999999	          0.09492539	          0.01193110	          0.06613499	          0.00999999	          0.11413877	          0.00999999	          0.00999999	          0.04628476	          0.05433730	          0.17770350	
